<svg width="24" height="24" viewBox="0 0 24 24" fill="none" xmlns="http://www.w3.org/2000/svg">
<path d="M3 17.75H6C6.13807 17.75 6.25 17.8619 6.25 18V21C6.25 21.1381 6.13807 21.25 6 21.25H3C2.86193 21.25 2.75 21.1381 2.75 21V18C2.75 17.8619 2.86193 17.75 3 17.75ZM10.5 17.75H13.5C13.6381 17.75 13.75 17.8619 13.75 18V21C13.75 21.1381 13.6381 21.25 13.5 21.25H10.5C10.3619 21.25 10.25 21.1381 10.25 21V18C10.25 17.8619 10.3619 17.75 10.5 17.75ZM18 17.75H21C21.1381 17.75 21.25 17.8619 21.25 18V21C21.25 21.1381 21.1381 21.25 21 21.25H18C17.8619 21.25 17.75 21.1381 17.75 21V18C17.75 17.8619 17.8619 17.75 18 17.75ZM3 10.25H6C6.13807 10.25 6.25 10.3619 6.25 10.5V13.5C6.25 13.6381 6.13807 13.75 6 13.75H3C2.86193 13.75 2.75 13.6381 2.75 13.5V10.5C2.75 10.3619 2.86193 10.25 3 10.25ZM10.5 10.25H13.5C13.6381 10.25 13.75 10.3619 13.75 10.5V13.5C13.75 13.6381 13.6381 13.75 13.5 13.75H10.5C10.3619 13.75 10.25 13.6381 10.25 13.5V10.5C10.25 10.3619 10.3619 10.25 10.5 10.25ZM18 10.25H21C21.1381 10.25 21.25 10.3619 21.25 10.5V13.5C21.25 13.6381 21.1381 13.75 21 13.75H18C17.8619 13.75 17.75 13.6381 17.75 13.5V10.5C17.75 10.3619 17.8619 10.25 18 10.25ZM3 2.75H6C6.13807 2.75 6.25 2.86193 6.25 3V6C6.25 6.13807 6.13807 6.25 6 6.25H3C2.86193 6.25 2.75 6.13807 2.75 6V3C2.75 2.86193 2.86193 2.75 3 2.75ZM10.5 2.75H13.5C13.6381 2.75 13.75 2.86193 13.75 3V6C13.75 6.13807 13.6381 6.25 13.5 6.25H10.5C10.3619 6.25 10.25 6.13807 10.25 6V3C10.25 2.86193 10.3619 2.75 10.5 2.75ZM18 2.75H21C21.1381 2.75 21.25 2.86193 21.25 3V6C21.25 6.13807 21.1381 6.25 21 6.25H18C17.8619 6.25 17.75 6.13807 17.75 6V3C17.75 2.86193 17.8619 2.75 18 2.75Z" stroke="#286271" stroke-width="1.5"/>
</svg>
