<svg width="24" height="24" viewBox="0 0 24 24" fill="none" xmlns="http://www.w3.org/2000/svg">
<path d="M12.702 13H11.074C10.8244 13.0002 10.5827 13.0907 10.3904 13.256C10.198 13.4213 10.0668 13.6512 10.0195 13.9061C9.97218 14.161 10.0116 14.4252 10.1309 14.6532C10.2502 14.8812 10.4421 15.0589 10.6735 15.1558L12.3265 15.8442C12.5579 15.9411 12.7498 16.1188 12.8691 16.3468C12.9884 16.5748 13.0278 16.839 12.9805 17.0939C12.9332 17.3488 12.802 17.5787 12.6096 17.744C12.4173 17.9093 12.1756 17.9998 11.926 18H10.2996" stroke="white" stroke-width="1.5" stroke-linecap="round" stroke-linejoin="round"/>
<path d="M11 13V12" stroke="white" stroke-width="1.5" stroke-linecap="round" stroke-linejoin="round"/>
<path d="M12.0742 19.5V18.75" stroke="white" stroke-width="1.5" stroke-linecap="round" stroke-linejoin="round"/>
<path d="M7 9H16" stroke="white" stroke-width="1.5" stroke-linecap="round" stroke-linejoin="round"/>
<path d="M14.6543 6L15.93 3.9869C15.9923 3.88837 16.0138 3.77686 15.9913 3.66817C15.969 3.55948 15.9038 3.45909 15.8051 3.38123C15.7064 3.30336 15.5792 3.25195 15.4414 3.23427C15.3037 3.2166 15.1624 3.23355 15.0375 3.28273L13.3519 3.9463C13.2069 4.00342 13.0405 4.01681 12.8838 3.98394C12.7271 3.95107 12.591 3.87422 12.5012 3.76781L12.055 3.23373C11.9942 3.16183 11.9119 3.10288 11.8153 3.06211C11.7187 3.02133 11.6109 3 11.5014 3C11.3918 3 11.284 3.02133 11.1874 3.06211C11.0909 3.10288 11.0086 3.16183 10.9478 3.23373L10.4963 3.76781C10.4065 3.87434 10.2704 3.95129 10.1137 3.98417C9.95696 4.01704 9.79045 4.00357 9.64548 3.9463L7.96259 3.28273C7.83768 3.23378 7.69645 3.217 7.5588 3.23474C7.42116 3.25248 7.29404 3.30387 7.19538 3.38164C7.0967 3.45942 7.03145 3.55967 7.00883 3.66825C6.9862 3.77684 7.00733 3.88829 7.06924 3.9869L8.3201 5.9608" stroke="white" stroke-width="1.5" stroke-linecap="round" stroke-linejoin="round"/>
<path d="M7.39108 11L5.04555 13.51C4.47158 14.1986 4.11797 15.0218 4.02477 15.8864C3.93157 16.751 4.10249 17.6223 4.51818 18.4018C4.93389 19.1813 5.57774 19.8379 6.37685 20.297C7.17597 20.7562 8.09842 20.9998 9.03974 21H13.9602C14.9016 20.9998 15.824 20.7562 16.6231 20.297C17.4223 19.8379 18.0661 19.1813 18.4818 18.4018C18.8975 17.6223 19.0684 16.751 18.9753 15.8864C18.882 15.0218 18.5284 14.1986 17.9544 13.51L15.6089 11" stroke="white" stroke-width="1.5" stroke-linecap="round" stroke-linejoin="round"/>
</svg>
