<svg width="24" height="24" viewBox="0 0 24 24" fill="none" xmlns="http://www.w3.org/2000/svg">
<path d="M5.4 13.7029V20.3029H10.2V15.5029C10.2 15.1847 10.3264 14.8795 10.5515 14.6544C10.7765 14.4294 11.0817 14.3029 11.4 14.3029H12.6C12.9183 14.3029 13.2235 14.4294 13.4485 14.6544C13.6736 14.8795 13.8 15.1847 13.8 15.5029V20.3029H18.6V13.7029M3 12.5029L11.1512 4.35174C11.2626 4.24023 11.395 4.15177 11.5406 4.09142C11.6862 4.03106 11.8423 4 12 4C12.1577 4 12.3138 4.03106 12.4594 4.09142C12.605 4.15177 12.7374 4.24023 12.8488 4.35174L21 12.5029" stroke="#228800" stroke-width="1.5" stroke-linecap="round" stroke-linejoin="round"/>
</svg>
