<svg width="24" height="24" viewBox="0 0 24 24" fill="none" xmlns="http://www.w3.org/2000/svg">
<path d="M8.5569 8.35231L8.55523 8.35317L8.55273 8.35488L8.5569 8.35231ZM16.8519 8.19169C16.7939 8.13403 16.7296 8.08358 16.6603 8.04137C16.5621 7.98178 16.453 7.94358 16.3399 7.92914C16.2268 7.91469 16.1121 7.92431 16.0028 7.95739C15.8934 7.99048 15.7918 8.04634 15.7043 8.1215C15.6167 8.19667 15.5449 8.28955 15.4936 8.3944C15.2066 8.97755 14.8107 9.49653 14.3286 9.92162C14.4025 9.49345 14.4398 9.05945 14.4403 8.62459C14.4418 7.30195 14.1033 6.00249 13.4593 4.85851C12.8152 3.71455 11.8885 2.76693 10.7736 2.11213C10.6507 2.04018 10.5122 2.0016 10.3708 2.00005C10.2295 1.99849 10.0902 2.034 9.96582 2.10323C9.84149 2.17245 9.73628 2.27312 9.66008 2.39579C9.58389 2.51845 9.5392 2.65908 9.53024 2.80444C9.48358 3.61879 9.27702 4.41491 8.92307 5.14457C8.56912 5.87422 8.07514 6.52221 7.47106 7.0493L7.27939 7.20992C6.64741 7.64819 6.08802 8.18851 5.62272 8.81012C4.89962 9.74906 4.39871 10.8487 4.15973 12.0219C3.92076 13.1951 3.95027 14.4096 4.24597 15.569C4.54165 16.7283 5.09536 17.8007 5.86318 18.7012C6.631 19.6016 7.59181 20.3052 8.6694 20.7562C8.79592 20.8093 8.93315 20.8295 9.06903 20.8151C9.2049 20.8007 9.33525 20.752 9.4486 20.6734C9.56195 20.5949 9.65482 20.4888 9.71905 20.3645C9.78327 20.2403 9.81688 20.1017 9.8169 19.9609C9.81621 19.8698 9.80216 19.7795 9.77524 19.6929C9.5888 18.9705 9.53509 18.2186 9.6169 17.476C10.4057 19.0087 11.6715 20.2237 13.2111 20.9255C13.3989 21.012 13.6113 21.0236 13.8069 20.9581C15.0232 20.5534 16.1188 19.8349 16.9898 18.8709C17.8608 17.9068 18.4781 16.7293 18.7833 15.4501C19.0884 14.1709 19.0711 12.8325 18.733 11.5621C18.395 10.2917 17.7475 9.13149 16.8519 8.19169ZM13.5978 19.2127C12.8713 18.8333 12.2305 18.3005 11.7169 17.6491C11.2034 16.9977 10.8286 16.2422 10.6169 15.4317C10.5522 15.1587 10.5022 14.8823 10.4669 14.6037C10.4432 14.4262 10.3662 14.2609 10.2469 14.1308C10.1275 14.0006 9.97166 13.9122 9.80107 13.8779C9.74864 13.8673 9.69532 13.8622 9.6419 13.8624C9.49549 13.8622 9.35161 13.9018 9.22478 13.9773C9.09794 14.0527 8.99261 14.1612 8.9194 14.2919C8.22811 15.5212 7.88055 16.9238 7.91523 18.3444C7.30703 17.8571 6.79871 17.2502 6.41974 16.5589C6.04077 15.8677 5.79869 15.1057 5.70754 14.3173C5.61638 13.5289 5.67796 12.7297 5.8887 11.966C6.09944 11.2023 6.45516 10.4893 6.93523 9.86837C7.29974 9.38032 7.73948 8.95726 8.2369 8.616C8.25867 8.60161 8.27954 8.58583 8.2994 8.56876C8.2994 8.56876 8.5469 8.35746 8.55523 8.35317C9.7429 7.31818 10.5869 5.92793 10.9711 4.37457C11.8789 5.23984 12.4842 6.38986 12.6929 7.64606C12.9016 8.90226 12.7021 10.1943 12.1252 11.3217C12.0489 11.4721 12.0176 11.6425 12.0352 11.8114C12.0527 11.9801 12.1185 12.1398 12.2241 12.2702C12.3297 12.4005 12.4703 12.4957 12.6283 12.5436C12.7864 12.5916 12.9547 12.5902 13.1119 12.5397C14.3883 12.127 15.5115 11.3213 16.3303 10.2308C16.8225 10.98 17.1443 11.834 17.2718 12.7293C17.3993 13.6245 17.3291 14.5379 17.0664 15.4013C16.8038 16.2646 16.3554 17.0558 15.7548 17.7157C15.1543 18.3756 14.4169 18.8874 13.5978 19.2127Z" fill="url(#paint0_linear_40000432_11324)"/>
<path d="M8.55523 8.35317L8.5569 8.35231L8.55273 8.35488C8.52716 8.37422 8.2994 8.56876 8.2994 8.56876C8.27954 8.58583 8.25867 8.60161 8.2369 8.616C7.73948 8.95726 7.29974 9.38032 6.93523 9.86837C6.45516 10.4893 6.09944 11.2023 5.8887 11.966C5.67796 12.7297 5.61638 13.5289 5.70754 14.3173C5.79869 15.1057 6.04077 15.8677 6.41974 16.5589C6.79871 17.2502 7.30703 17.8571 7.91523 18.3444C7.88055 16.9238 8.22811 15.5212 8.9194 14.2919C8.99261 14.1612 9.09794 14.0527 9.22478 13.9773C9.35161 13.9018 9.49549 13.8622 9.6419 13.8624C9.69532 13.8622 9.74864 13.8673 9.80107 13.8779C9.97166 13.9122 10.1275 14.0006 10.2469 14.1308C10.3662 14.2609 10.4432 14.4262 10.4669 14.6037C10.5022 14.8823 10.5522 15.1587 10.6169 15.4317C10.8286 16.2422 11.2034 16.9977 11.7169 17.6491C12.2305 18.3005 12.8713 18.8333 13.5978 19.2127C14.4169 18.8874 15.1543 18.3756 15.7548 17.7157C16.3554 17.0558 16.8038 16.2646 17.0664 15.4013C17.3291 14.5379 17.3993 13.6245 17.2718 12.7293C17.1443 11.834 16.8225 10.98 16.3303 10.2308C15.5115 11.3213 14.3883 12.127 13.1119 12.5397C12.9547 12.5902 12.7864 12.5916 12.6283 12.5436C12.4703 12.4957 12.3297 12.4005 12.2241 12.2702C12.1185 12.1398 12.0527 11.9801 12.0352 11.8114C12.0176 11.6425 12.0489 11.4721 12.1252 11.3217C12.7021 10.1943 12.9016 8.90226 12.6929 7.64606C12.4842 6.38986 11.8789 5.23984 10.9711 4.37457C10.5869 5.92793 9.7429 7.31818 8.55523 8.35317Z" fill="url(#paint1_linear_40000432_11324)"/>
<defs>
<linearGradient id="paint0_linear_40000432_11324" x1="7" y1="2" x2="19" y2="21" gradientUnits="userSpaceOnUse">
<stop stop-color="#FFD152"/>
<stop offset="1" stop-color="#FF0000"/>
</linearGradient>
<linearGradient id="paint1_linear_40000432_11324" x1="7" y1="2" x2="19" y2="21" gradientUnits="userSpaceOnUse">
<stop stop-color="#FFD152"/>
<stop offset="1" stop-color="#FF0000"/>
</linearGradient>
</defs>
</svg>
