<svg width="46" height="15" viewBox="0 0 46 15" fill="none" xmlns="http://www.w3.org/2000/svg">
<path d="M30.5512 4.38574C31.791 3.91779 32.8457 4.09603 33.8257 5.00483C33.8418 4.79559 33.8479 4.61804 33.8506 4.4081L33.9055 4.43873C33.9128 4.49609 33.9267 4.70101 33.9402 4.72873L33.9836 4.70704C33.9948 4.6507 34.0053 4.60288 34.0207 4.54747C34.1861 4.50451 34.9922 4.5421 35.2222 4.53463L35.2425 4.55751C35.2205 4.60332 35.2056 4.61138 35.1668 4.64108L35.2327 4.67345C35.2674 4.82762 35.2559 5.29292 35.2559 5.46862L35.2561 9.76212C35.2559 10.6534 35.3086 11.8292 35.0524 12.6755C34.9568 12.829 34.9251 13.0547 34.847 13.1959C34.4925 13.836 33.9399 14.3516 33.2434 14.5931C33.1653 14.6201 32.9684 14.651 32.9389 14.7148C33.0048 14.7666 33.0636 14.7628 33.1465 14.7685C32.9152 14.8335 32.7418 14.8828 32.5029 14.9144C32.4439 14.8995 32.379 14.8942 32.3436 14.8547L32.3648 14.8005C32.3888 14.8177 32.3939 14.826 32.4215 14.8318C32.3902 14.6199 32.3993 13.8014 32.4132 13.5538C32.357 13.5164 32.2548 13.5184 32.2024 13.563L32.2014 13.5993L32.2985 13.6167C32.3258 13.6733 32.3305 14.6241 32.3129 14.7296C32.2631 14.7995 32.2719 14.781 32.1863 14.8225C32.2782 14.8489 32.2702 14.8918 32.3444 14.9313C31.9386 15.0302 31.3221 14.9491 30.9166 14.8589C29.9493 14.6437 28.828 13.733 28.5318 12.7668C28.7934 12.6913 29.3289 12.4331 29.6399 12.3199C29.667 12.3574 29.67 12.3669 29.7105 12.3853L29.8285 12.3724C30.305 12.8994 30.2052 12.9954 30.8666 13.4365L30.9013 13.4273C30.9018 13.3179 30.7973 13.3462 30.8293 13.2552C31.6525 13.6589 32.6154 13.6489 33.3017 12.9493C33.875 12.3648 33.8521 11.4873 33.8265 10.7203C33.6108 10.9303 33.3461 11.1776 33.0831 11.2967C30.2508 12.5792 27.475 9.55906 28.3876 6.753C28.7482 5.644 29.3872 4.98054 30.405 4.43966C30.4636 4.50207 30.4372 4.48752 30.5138 4.51291C30.6109 4.49426 30.6883 4.48499 30.7761 4.438C30.669 4.43495 30.649 4.42999 30.5512 4.38574ZM31.4595 5.63992L31.4343 5.61393L31.4895 5.56487C31.4409 5.53767 31.4214 5.52667 31.3636 5.54417C30.0423 5.94411 29.3362 7.61286 29.9025 8.85599C30.1896 9.48655 30.4592 9.81822 31.0645 10.1184C31.1204 10.1461 31.136 10.1572 31.1992 10.1581C31.2743 10.1241 31.2509 10.1399 31.2916 10.0512C31.5476 10.1289 31.7259 10.1504 31.9945 10.1702C32.1277 10.2188 32.218 10.1979 32.2702 10.2664C32.3558 10.5023 32.3322 11.1415 32.2748 11.3935L32.2895 11.4126C32.3734 11.4199 32.4183 11.439 32.4824 11.4024C32.4695 11.3944 32.4559 11.3862 32.4446 11.376C32.3502 11.2903 32.4095 10.3859 32.4105 10.2176L32.4168 10.1818C32.3041 10.1492 32.1153 10.1649 31.9945 10.1702C32.084 10.1534 32.165 10.1488 32.2531 10.1342C34.1675 9.81697 34.5042 7.01921 33.0577 5.95871C32.5408 5.57966 32.0653 5.54527 31.4595 5.63992Z" fill="#C7C7C7"/>
<path d="M31.2916 10.0512C31.2509 10.1399 31.2743 10.1241 31.1992 10.1581C31.136 10.1572 31.1204 10.1461 31.0645 10.1184C30.4592 9.81822 30.1896 9.48655 29.9025 8.85599C29.3362 7.61286 30.0423 5.94411 31.3636 5.54417C31.4214 5.52667 31.4409 5.53767 31.4895 5.56487L31.4343 5.61393L31.4595 5.63992C31.3777 5.67998 31.3285 5.69062 31.248 5.71989C29.3716 6.40049 29.376 9.39533 31.2809 10.0476L31.2916 10.0512Z" fill="#C7C7C7"/>
<path d="M32.2702 10.2664C32.3395 10.2958 32.3705 10.264 32.4105 10.2176C32.4095 10.3859 32.3502 11.2903 32.4446 11.376C32.4559 11.3862 32.4695 11.3944 32.4824 11.4024C32.4183 11.439 32.3734 11.4199 32.2895 11.4126L32.2748 11.3935C32.3322 11.1415 32.3558 10.5023 32.2702 10.2664Z" fill="#C7C7C7"/>
<path d="M31.9945 10.1702C32.1153 10.1649 32.3041 10.1492 32.4168 10.1818L32.4105 10.2176C32.3705 10.264 32.3395 10.2958 32.2702 10.2664C32.218 10.1979 32.1277 10.2188 31.9945 10.1702Z" fill="#C7C7C7"/>
<path d="M5.13359 0.0510564C6.18311 -0.101844 7.75964 0.0829566 8.64845 0.682887L8.61178 0.709998L8.52368 0.669713C8.47562 0.707208 8.48521 0.689038 8.47452 0.737549C8.64572 0.847926 9.7802 1.47252 9.58813 1.68783C9.40534 1.89275 9.05225 2.26667 8.83484 2.44529C8.74692 2.42455 8.59475 2.3747 8.52305 2.4131L8.50612 2.46348C7.46544 1.70775 6.49641 1.40622 5.19795 1.61355C4.12429 1.78915 3.16375 2.38283 2.52628 3.26488C2.20044 3.71466 1.83943 4.46883 1.78215 5.02447C1.77417 4.89179 1.7506 4.81158 1.76963 4.67726L1.74263 4.68338C1.69022 4.79947 1.61788 5.18296 1.65172 5.28467L1.68093 5.28948L1.72413 5.18221L1.75241 5.18933C1.71947 5.48363 1.69693 5.69719 1.7051 5.99615C1.67168 5.93928 1.65629 5.91086 1.6313 5.84996L1.6039 5.84652C1.54767 6.15469 1.73443 7.08916 1.874 7.38471L1.90828 7.41192L1.91667 7.29017C1.95549 7.43714 1.97657 7.58474 2.01234 7.73112C2.01868 7.75709 2.12559 7.88392 2.14937 7.93413C2.45997 8.58951 2.98961 9.13515 3.5957 9.52575C3.68121 9.58084 4.12685 9.8229 4.20829 9.82163C4.26377 9.7649 4.25032 9.79139 4.26599 9.71565C4.46702 9.81167 4.80211 9.90716 5.02151 9.9543C6.54889 10.2825 8.33468 9.76249 9.21061 8.40932C9.50479 7.95485 9.60996 7.41429 9.72577 6.89499C8.71796 6.86272 7.69904 6.89506 6.69022 6.88312C6.4381 6.88015 6.16908 6.87822 5.9181 6.8903C5.89376 6.37578 5.93455 5.80915 5.90581 5.32532C7.18033 5.31255 8.46728 5.33288 9.74288 5.32707C9.93866 5.32617 11.1097 5.30647 11.2483 5.33715L11.2608 5.38431C11.1051 5.43511 11.2012 6.49656 11.1818 6.72542C11.1444 7.16678 11.0388 7.58157 10.9926 8.0085C11.0495 8.08512 11.0368 7.99557 11.066 8.09027C10.564 9.5265 9.76044 10.4266 8.36591 11.1184C8.35476 11.1239 8.34154 11.1278 8.32965 11.1315C8.19452 11.0762 7.90156 11.112 7.80078 11.1993C7.8424 11.2427 7.96255 11.2485 8.02769 11.2529C7.94206 11.2837 7.79294 11.3422 7.70899 11.355L7.71568 11.2789C7.60792 11.2144 7.22601 11.3496 7.11393 11.3878C7.14918 11.4402 7.15416 11.4476 7.20832 11.4808C7.10356 11.5336 6.66687 11.5606 6.52759 11.5747C5.21193 11.7081 3.87644 11.4106 2.7554 10.702C1.42334 9.87086 0.478006 8.54213 0.129241 7.01076C-0.195676 5.5667 0.103851 3.99783 0.894951 2.7506C1.75119 1.40364 3.11096 0.455866 4.67054 0.118957L4.69645 0.19371C4.78811 0.238171 5.10442 0.219789 5.19886 0.19535C5.20988 0.181474 5.23101 0.146337 5.2416 0.129719C5.20464 0.0671737 5.21279 0.0850118 5.13359 0.0510564ZM6.39243 0.185143C6.2744 0.160309 6.19713 0.168254 6.07749 0.17358C6.19591 0.220614 6.26896 0.217275 6.39243 0.185143Z" fill="#C7C7C7"/>
<path d="M6.39243 0.185143C6.2744 0.160309 6.19713 0.168254 6.07749 0.17358C6.19591 0.220614 6.26896 0.217275 6.39243 0.185143Z" fill="#C7C7C7"/>
<path d="M14.6318 4.29442C15.6243 4.0189 16.7264 4.11626 17.6279 4.62673C18.4716 5.09372 19.0907 5.88226 19.3443 6.81297C19.3591 6.86689 19.4163 7.09009 19.4172 7.13032C19.3137 7.48012 19.3708 7.89058 19.3363 8.25638C19.3062 8.57394 19.2095 8.84529 19.2807 9.15573C18.9331 9.98161 18.4164 10.7365 17.5808 11.1365L17.5733 11.0886L17.6267 11.0356L17.5988 11.0228C17.4936 11.0646 17.0228 11.2388 16.9778 11.317C17.0601 11.3178 17.1423 11.3168 17.2246 11.3138C16.0766 11.798 14.6923 11.6768 13.6467 10.9987C12.8494 10.479 12.2875 9.66708 12.082 8.73741C11.7891 7.34983 12.1978 5.91184 13.3096 4.99584C13.5749 4.77726 14.0928 4.43819 14.4302 4.36748C14.4885 4.46946 14.5847 4.47295 14.6816 4.41801L14.6909 4.36982L14.6318 4.29442ZM13.6388 7.54486C13.6344 7.46992 13.6298 7.22043 13.5966 7.17247L13.6094 7.20345L13.575 7.21921C13.5422 7.38041 13.4907 7.6206 13.4807 7.77911C13.4517 8.23929 13.6931 8.9585 13.9453 9.3418C14.106 9.58589 14.3135 9.79559 14.5559 9.95871C14.5922 9.98363 14.7404 10.0441 14.8601 10.126L14.8996 10.0649C14.8464 9.95229 14.7824 10.0377 14.8015 9.9365C16.1923 10.5871 17.6257 9.7197 17.8396 8.22848C18.0138 7.01501 17.2713 5.75723 15.9969 5.60619C14.7453 5.45783 13.8078 6.33588 13.6388 7.54486Z" fill="#C7C7C7"/>
<path d="M14.8015 9.9365C14.7824 10.0377 14.8464 9.95229 14.8996 10.0649L14.8601 10.126C14.7404 10.0441 14.5922 9.98363 14.5559 9.95871C14.3135 9.79559 14.106 9.58589 13.9453 9.3418C13.6931 8.9585 13.4517 8.23929 13.4807 7.77911C13.4907 7.6206 13.5422 7.38041 13.575 7.21921L13.6094 7.20345L13.5966 7.17247C13.6298 7.22043 13.6344 7.46992 13.6388 7.54486C13.5594 8.20107 13.6971 8.82179 14.1075 9.3532C14.3519 9.66966 14.4839 9.72539 14.8015 9.9365Z" fill="#C7C7C7"/>
<path d="M22.8749 4.24968C23.8198 4.10006 24.7227 4.07242 25.5981 4.54991L25.5178 4.60847C25.5164 4.75771 26.258 5.00746 26.3188 5.22507C26.3202 5.23112 26.4852 5.33957 26.4991 5.36518C27.1829 6.11282 27.4557 6.77609 27.4554 7.78233C27.455 8.69262 27.3332 9.40436 26.7335 10.1081C26.6742 10.1652 26.6179 10.323 26.5615 10.3702C26.1453 10.7186 25.7174 11.0571 25.2019 11.2455C25.1309 11.2714 25.0426 11.2962 24.9747 11.3217C24.9062 11.3474 24.6681 11.3776 24.6422 11.4225C24.69 11.4459 24.7361 11.4641 24.773 11.5024C24.7149 11.5269 24.6466 11.5276 24.5856 11.5393C22.8242 11.8792 20.9997 10.9617 20.3539 9.26208C20.2693 9.03964 20.1558 8.6676 20.1431 8.42136C20.1618 8.30171 20.1515 8.16711 20.179 7.99823L20.1844 8.02083C20.2146 7.95678 20.1938 7.735 20.1818 7.65841L20.1786 7.73678C20.1563 7.67115 20.1478 7.40868 20.1425 7.32603C20.1413 7.24946 20.1757 7.11425 20.1916 7.03514C20.4477 5.76033 21.5011 4.60449 22.778 4.29377L22.8144 4.35545C22.9 4.38999 22.9152 4.39553 23.0066 4.39326L23.0247 4.36411C22.9864 4.31273 22.9295 4.28317 22.8749 4.24968ZM23.1013 10.0209L22.8683 10.0543C22.9425 10.1471 23.0725 10.1857 23.1762 10.1203L23.196 10.0529L23.3562 10.0983C23.3114 10.1181 23.267 10.1388 23.2228 10.1603L23.2201 10.2033C23.3931 10.2398 23.4653 10.1639 23.6012 10.1457C25.6401 10.349 26.634 7.92351 25.52 6.43004C25.1792 5.9776 24.6712 5.68071 24.1099 5.60578C23.3443 5.49603 22.5563 5.87025 22.13 6.50842C21.8834 6.87751 21.794 7.21365 21.7333 7.64276C21.7279 7.55984 21.7307 7.42457 21.6854 7.3623C21.5715 7.44519 21.618 8.3545 21.6745 8.51533L21.6922 8.51612C21.704 8.41601 21.7087 8.16904 21.7352 8.10582C21.847 9.00317 22.2681 9.64296 23.1013 10.0209Z" fill="#C7C7C7"/>
<path d="M21.7352 8.10582C21.7087 8.16904 21.704 8.41601 21.6922 8.51612L21.6745 8.51533C21.618 8.3545 21.5715 7.44519 21.6854 7.3623C21.7307 7.42457 21.7279 7.55984 21.7333 7.64276L21.7352 8.10582Z" fill="#C7C7C7"/>
<path d="M23.1013 10.0209L23.196 10.0529L23.1762 10.1203C23.0725 10.1857 22.9425 10.1471 22.8683 10.0543L23.1013 10.0209Z" fill="#C7C7C7"/>
<path d="M23.3562 10.0983L23.6012 10.1457C23.4653 10.1639 23.3931 10.2398 23.2201 10.2033L23.2228 10.1603C23.267 10.1388 23.3114 10.1181 23.3562 10.0983Z" fill="#C7C7C7"/>
<path d="M43.8378 11.3347C43.8034 11.3397 43.7251 11.3679 43.687 11.3812C42.719 11.7195 41.6043 11.6809 40.6794 11.2149C39.8096 10.7791 39.1531 10.0098 38.8591 9.08201C38.5446 8.12174 38.641 6.93509 39.0992 6.03276C39.5061 5.22087 40.2185 4.60364 41.0797 4.31637C41.928 4.03959 42.887 4.08434 43.687 4.49048C43.617 4.4999 43.5846 4.49936 43.5284 4.54137L43.5294 4.57991C43.6314 4.65309 43.7412 4.67623 43.8349 4.74148C44.5282 5.22336 45.075 5.8866 45.3368 6.69647C45.439 7.01318 44.7324 7.0709 44.6112 7.22148C44.7068 7.26928 44.7893 7.14584 44.9391 7.18507C44.5892 7.33242 44.2296 7.48437 43.8776 7.62501L43.839 7.59299C43.8849 7.55596 43.9217 7.54742 43.9774 7.52877L43.9461 7.50319C43.7658 7.54007 43.6936 7.54388 43.5426 7.65228L43.5306 7.72485L43.5614 7.75084C43.2884 7.87045 43.0129 7.98395 42.7351 8.09125L42.695 8.05127L42.7046 8.03855C42.5828 8.0085 42.2674 8.13145 42.1812 8.2233L42.2701 8.29084C41.9234 8.43054 41.4662 8.64067 41.1283 8.76082L41.1368 8.68986C41.0087 8.63035 40.9148 8.69464 40.8226 8.7853C40.8323 8.81642 40.8406 8.84078 40.8526 8.8711C40.7523 8.91603 40.6418 8.96846 40.5393 9.00447C40.864 9.51913 40.9641 9.67469 41.4928 9.98266L41.3474 9.9821L41.3254 10.0127C41.3708 10.1222 41.6609 10.2115 41.7577 10.1698L41.838 10.0912C42.0066 10.1418 42.2564 10.16 42.4342 10.1668C42.534 10.2221 42.7799 10.2985 42.8727 10.2184C42.8468 10.1664 42.8046 10.1614 42.7416 10.1325C43.5528 9.95334 43.7312 9.71492 44.2433 9.14348C44.5319 9.31319 45.2106 9.7599 45.4839 9.96579C45.1125 10.5083 44.5024 11.0579 43.8878 11.3004L43.8883 11.2312C43.8185 11.1935 43.7744 11.1923 43.7107 11.2461L43.709 11.2908C43.7595 11.3272 43.7768 11.3264 43.8378 11.3347ZM43.6704 6.35843C43.2877 5.57007 42.2088 5.36767 41.4742 5.74881C41.2673 5.85609 41.1456 5.94094 40.9638 6.08275C40.9551 6.04636 40.9494 5.99837 40.9236 5.9746C40.6564 6.11134 40.1099 7.12639 40.1975 7.35092L40.2617 7.37633L40.2763 7.59353L40.28 7.72741L40.3146 7.7547C40.6145 7.6667 41.593 7.23767 41.9302 7.09382C42.3789 6.90258 43.2952 6.56005 43.6704 6.35843Z" fill="#C7C7C7"/>
<path d="M40.2763 7.59353L40.2617 7.37633L40.1975 7.35092C40.1099 7.12639 40.6564 6.11134 40.9236 5.9746C40.9494 5.99837 40.9551 6.04636 40.9638 6.08275C40.4644 6.5983 40.3724 6.91879 40.2763 7.59353Z" fill="#C7C7C7"/>
<path d="M36.3965 0.421473C36.901 0.436365 37.445 0.425931 37.9525 0.424927L37.9508 11.3888C37.5397 11.3881 37.0135 11.403 36.6121 11.3849C36.6148 11.3554 36.6248 11.3494 36.6451 11.3278C36.7488 11.291 37.0435 11.3079 37.1725 11.3092V11.2912C36.98 11.2964 36.6724 11.3096 36.4928 11.2592L36.4826 11.2562L36.5148 11.3152L36.487 11.3826L36.4148 11.3739C36.3457 11.1566 36.3921 8.91489 36.3916 8.50018L36.3909 3.28802C36.3909 2.34849 36.3755 1.35768 36.3965 0.421473Z" fill="#C7C7C7"/>
<path d="M35.302 4.38481L35.354 4.37207C35.4291 4.48298 35.3723 8.5085 35.3881 9.01938C35.4006 9.42147 35.3979 10.7522 35.3818 11.1949C35.3679 11.5632 35.3274 11.9299 35.2605 12.2923C35.231 12.4459 35.201 12.5662 35.1439 12.7139L35.0524 12.6755C35.3086 11.8292 35.2559 10.6534 35.2561 9.76212L35.2559 5.46862C35.2559 5.29292 35.2674 4.82762 35.2327 4.67345L35.1668 4.64108C35.2056 4.61138 35.2205 4.60332 35.2425 4.55751L35.2222 4.53463C34.9922 4.5421 34.1861 4.50451 34.0207 4.54747C34.0053 4.60288 33.9948 4.6507 33.9836 4.70704L33.9402 4.72873C33.9267 4.70101 33.9128 4.49609 33.9055 4.43873C34.0319 4.43529 34.1493 4.41461 34.271 4.41466C34.5699 4.41479 35.0173 4.4566 35.302 4.38481Z" fill="#C7C7C7"/>
<path d="M25.5981 4.54991C26.452 4.97431 27.1024 5.7206 27.4066 6.62471C27.7219 7.54976 27.6526 8.68239 27.2185 9.56234C26.7911 10.425 26.0404 11.0838 25.1297 11.3955C25.0157 11.434 24.8894 11.4741 24.773 11.5024C24.7361 11.4641 24.69 11.4459 24.6422 11.4225C24.6681 11.3776 24.9062 11.3474 24.9747 11.3217C25.0426 11.2962 25.1309 11.2714 25.2019 11.2455C25.7174 11.0571 26.1453 10.7186 26.5615 10.3702C26.6179 10.323 26.6742 10.1652 26.7335 10.1081C27.3332 9.40436 27.455 8.69262 27.4554 7.78233C27.4557 6.77609 27.1829 6.11282 26.4991 5.36518C26.4852 5.33957 26.3202 5.23112 26.3188 5.22507C26.258 5.00746 25.5164 4.75771 25.5178 4.60847L25.5981 4.54991Z" fill="#C7C7C7"/>
<path d="M4.26599 9.71565C4.25032 9.79139 4.26377 9.7649 4.20829 9.82163C4.12685 9.8229 3.68121 9.58084 3.5957 9.52575C2.98961 9.13515 2.45997 8.58951 2.14937 7.93413C2.12559 7.88392 2.01868 7.75709 2.01234 7.73112C1.97657 7.58474 1.95549 7.43714 1.91667 7.29017L1.90828 7.41192L1.874 7.38471C1.73443 7.08916 1.54767 6.15469 1.6039 5.84652L1.6313 5.84996C1.65629 5.91086 1.67168 5.93928 1.7051 5.99615C1.73331 6.21705 1.7712 6.58123 1.81926 6.789C2.04315 7.73608 2.58264 8.57868 3.34895 9.17811C3.60941 9.37951 3.95893 9.59204 4.26599 9.71565Z" fill="#C7C7C7"/>
<path d="M43.687 4.49048C44.6954 5.07505 45.1913 5.832 45.5554 6.9295C45.3521 7.01244 45.1389 7.09619 44.9391 7.18507C44.7893 7.14584 44.7068 7.26928 44.6112 7.22148C44.7324 7.0709 45.439 7.01318 45.3368 6.69647C45.075 5.8866 44.5282 5.22336 43.8349 4.74148C43.7412 4.67623 43.6314 4.65309 43.5294 4.57991L43.5284 4.54137C43.5846 4.49936 43.617 4.4999 43.687 4.49048Z" fill="#C7C7C7"/>
<path d="M8.83484 2.44529C9.05225 2.26667 9.40534 1.89275 9.58813 1.68783C9.7802 1.47252 8.64572 0.847926 8.47452 0.737549C8.48521 0.689038 8.47562 0.707208 8.52368 0.669713L8.61178 0.709998L8.64845 0.682887C9.1037 0.912688 9.49034 1.2307 9.86325 1.57516C9.57656 1.91772 9.09694 2.34602 8.77156 2.67254C8.68714 2.60837 8.58329 2.53336 8.50612 2.46348L8.52305 2.4131C8.59475 2.3747 8.74692 2.42455 8.83484 2.44529Z" fill="#C7C7C7"/>
<path d="M33.1465 14.7685C33.0636 14.7628 33.0048 14.7666 32.9389 14.7148C32.9684 14.651 33.1653 14.6201 33.2434 14.5931C33.9399 14.3516 34.4925 13.836 34.847 13.1959C34.9251 13.0547 34.9568 12.829 35.0524 12.6755L35.1439 12.7139C34.7994 13.7977 34.1641 14.3565 33.1465 14.7685Z" fill="#C7C7C7"/>
<path d="M11.066 8.09027C11.0368 7.99557 11.0495 8.08512 10.9926 8.0085C11.0388 7.58157 11.1444 7.16678 11.1818 6.72542C11.2012 6.49656 11.1051 5.43511 11.2608 5.38431C11.3766 6.25181 11.3217 7.24909 11.066 8.09027Z" fill="#C7C7C7"/>
<path d="M19.4172 7.13032C19.5599 7.9456 19.5039 8.3524 19.2807 9.15573C19.2095 8.84529 19.3062 8.57394 19.3363 8.25638C19.3708 7.89058 19.3137 7.48012 19.4172 7.13032Z" fill="#C7C7C7"/>
<path d="M29.9334 12.1903C30.0923 12.5735 30.357 12.8802 30.6785 13.1392C30.7139 13.1676 30.803 13.2258 30.8293 13.2552C30.7973 13.3462 30.9018 13.3179 30.9013 13.4273L30.8666 13.4365C30.2052 12.9954 30.305 12.8994 29.8285 12.3724L29.7105 12.3853C29.67 12.3669 29.667 12.3574 29.6399 12.3199L29.9334 12.1903Z" fill="#C7C7C7"/>
<path d="M32.3444 14.9313C32.2702 14.8918 32.2782 14.8489 32.1863 14.8225C32.2719 14.781 32.2631 14.7995 32.3129 14.7296C32.3305 14.6241 32.3258 13.6733 32.2985 13.6167L32.2014 13.5993L32.2024 13.563C32.2548 13.5184 32.357 13.5164 32.4132 13.5538C32.3993 13.8014 32.3902 14.6199 32.4215 14.8318C32.3939 14.826 32.3888 14.8177 32.3648 14.8005L32.3436 14.8547C32.379 14.8942 32.4439 14.8995 32.5029 14.9144L32.3444 14.9313Z" fill="#C7C7C7"/>
<path d="M7.20832 11.4808C7.15416 11.4476 7.14918 11.4402 7.11393 11.3878C7.22601 11.3496 7.60792 11.2144 7.71568 11.2789L7.70899 11.355C7.58301 11.4005 7.33935 11.4657 7.20832 11.4808Z" fill="#C7C7C7"/>
<path d="M17.2246 11.3138C17.1423 11.3168 17.0601 11.3178 16.9778 11.317C17.0228 11.2388 17.4936 11.0646 17.5988 11.0228L17.6267 11.0356L17.5733 11.0886L17.5808 11.1365C17.4465 11.2131 17.3669 11.2541 17.2246 11.3138Z" fill="#C7C7C7"/>
<path d="M33.8506 4.4081C33.9268 4.34302 35.1176 4.37617 35.302 4.38481C35.0173 4.4566 34.5699 4.41479 34.271 4.41466C34.1493 4.41461 34.0319 4.43529 33.9055 4.43873L33.8506 4.4081Z" fill="#C7C7C7"/>
<path d="M20.1431 8.42136C20.0827 8.1325 20.1008 7.6142 20.1425 7.32603C20.1478 7.40868 20.1563 7.67115 20.1786 7.73678L20.1818 7.65841C20.1938 7.735 20.2146 7.95678 20.1844 8.02083L20.179 7.99823C20.1515 8.16711 20.1618 8.30171 20.1431 8.42136Z" fill="#C7C7C7"/>
<path d="M42.2701 8.29084L42.1812 8.2233C42.2674 8.13145 42.5828 8.0085 42.7046 8.03855L42.695 8.05127L42.7351 8.09125C42.5711 8.16799 42.4396 8.22506 42.2701 8.29084Z" fill="#C7C7C7"/>
<path d="M41.838 10.0912L41.7577 10.1698C41.6609 10.2115 41.3708 10.1222 41.3254 10.0127L41.3474 9.9821L41.4928 9.98266C41.6221 10.0315 41.7031 10.063 41.838 10.0912Z" fill="#C7C7C7"/>
<path d="M1.75241 5.18933L1.72413 5.18221L1.68093 5.28948L1.65172 5.28467C1.61788 5.18296 1.69022 4.79947 1.74263 4.68338L1.76963 4.67726C1.7506 4.81158 1.77417 4.89179 1.78215 5.02447C1.77676 5.05757 1.76146 5.16385 1.75241 5.18933Z" fill="#C7C7C7"/>
<path d="M43.5614 7.75084L43.5306 7.72485L43.5426 7.65228C43.6936 7.54388 43.7658 7.54007 43.9461 7.50319L43.9774 7.52877C43.9217 7.54742 43.8849 7.55596 43.839 7.59299L43.8776 7.62501C43.7639 7.67764 43.6797 7.70937 43.5614 7.75084Z" fill="#C7C7C7"/>
<path d="M8.02769 11.2529C7.96255 11.2485 7.8424 11.2427 7.80078 11.1993C7.90156 11.112 8.19452 11.0762 8.32965 11.1315L8.02769 11.2529Z" fill="#C7C7C7"/>
<path d="M4.67054 0.118957C4.76456 0.0887464 4.78479 0.0858416 4.88357 0.0874234C5.00295 0.17638 5.04781 0.108125 5.19886 0.19535C5.10442 0.219789 4.78811 0.238171 4.69645 0.19371L4.67054 0.118957Z" fill="#C7C7C7"/>
<path d="M40.8526 8.8711C40.8406 8.84078 40.8323 8.81642 40.8226 8.7853C40.9148 8.69464 41.0087 8.63035 41.1368 8.68986L41.1283 8.76082C41.0334 8.81029 40.9533 8.83609 40.8526 8.8711Z" fill="#C7C7C7"/>
<path d="M42.4342 10.1668L42.7416 10.1325C42.8046 10.1614 42.8468 10.1664 42.8727 10.2184C42.7799 10.2985 42.534 10.2221 42.4342 10.1668Z" fill="#C7C7C7"/>
<path d="M4.88357 0.0874234C4.94569 0.0706153 5.0655 0.0594629 5.13359 0.0510564C5.21279 0.0850118 5.20464 0.0671737 5.2416 0.129719C5.23101 0.146337 5.20988 0.181474 5.19886 0.19535C5.04781 0.108125 5.00295 0.17638 4.88357 0.0874234Z" fill="#C7C7C7"/>
<path d="M30.405 4.43966C30.4519 4.41867 30.5026 4.40256 30.5512 4.38574C30.649 4.42999 30.669 4.43495 30.7761 4.438C30.6883 4.48499 30.6109 4.49426 30.5138 4.51291C30.4372 4.48752 30.4636 4.50207 30.405 4.43966Z" fill="#C7C7C7"/>
<path d="M14.4302 4.36748L14.6318 4.29442L14.6909 4.36982L14.6816 4.41801C14.5847 4.47295 14.4885 4.46946 14.4302 4.36748Z" fill="#C7C7C7"/>
<path d="M36.487 11.3826L36.5148 11.3152L36.4826 11.2562L36.4928 11.2592C36.6724 11.3096 36.98 11.2964 37.1725 11.2912V11.3092C37.0435 11.3079 36.7488 11.291 36.6451 11.3278C36.6248 11.3494 36.6148 11.3554 36.6121 11.3849L36.487 11.3826Z" fill="#C7C7C7"/>
<path d="M22.778 4.29377L22.8749 4.24968C22.9295 4.28317 22.9864 4.31273 23.0247 4.36411L23.0066 4.39326C22.9152 4.39553 22.9 4.38999 22.8144 4.35545L22.778 4.29377Z" fill="#C7C7C7"/>
<path d="M43.8378 11.3347C43.7768 11.3264 43.7595 11.3272 43.709 11.2908L43.7107 11.2461C43.7744 11.1923 43.8185 11.1935 43.8883 11.2312L43.8878 11.3004L43.8378 11.3347Z" fill="#C7C7C7"/>
</svg>
