<svg width="24" height="24" viewBox="0 0 24 24" fill="none" xmlns="http://www.w3.org/2000/svg">
<path d="M7.80002 10.2V7.2C7.80002 6.08609 8.24252 5.01781 9.03018 4.23015C9.81783 3.4425 10.8861 3 12 3C13.1139 3 14.1822 3.4425 14.9699 4.23015C15.7575 5.01781 16.2 6.08609 16.2 7.2V10.2M12 16V15.5M17.4 10.2H6.60002C5.93728 10.2 5.40002 10.7373 5.40002 11.4V19.8C5.40002 20.4627 5.93728 21 6.60002 21H17.4C18.0627 21 18.6 20.4627 18.6 19.8V11.4C18.6 10.7373 18.0627 10.2 17.4 10.2Z" stroke="#5A5A5A" stroke-width="1.5" stroke-linecap="round"/>
</svg>
