<svg width="24" height="24" viewBox="0 0 24 24" fill="none" xmlns="http://www.w3.org/2000/svg">
<path d="M7.6875 14.375H5.92969C5.15269 14.375 4.40751 14.0663 3.85809 13.5169C3.30866 12.9675 3 12.2223 3 11.4453C3 10.6683 3.30866 9.92313 3.85809 9.37371C4.40751 8.82429 5.15269 8.51562 5.92969 8.51562H7.6875M7.6875 14.375V8.51562M7.6875 14.375C11.1259 14.3753 14.4873 15.393 17.3484 17.3L18.2344 17.8906V5L17.3484 5.59063C14.4873 7.49761 11.1259 8.51533 7.6875 8.51562M7.6875 14.375C7.687 15.1421 7.84258 15.9014 8.14477 16.6065C8.44696 17.3116 8.88945 17.9479 9.44531 18.4766M20.5781 10.2734V12.6172" stroke="white" stroke-width="1.5" stroke-linecap="round" stroke-linejoin="round"/>
</svg>
