<svg width="24" height="24" viewBox="0 0 24 24" fill="none" xmlns="http://www.w3.org/2000/svg">
<path d="M3 21.0009H2.25V21.7509H3V21.0009ZM10.1663 3.9551C10.5702 3.86326 10.8232 3.46138 10.7313 3.05747C10.6395 2.65357 10.2376 2.40059 9.83371 2.49243L10 3.22376L10.1663 3.9551ZM21.4703 14.3309C21.5689 13.9286 21.3228 13.5225 20.9205 13.4238C20.5182 13.3252 20.1121 13.5713 20.0134 13.9736L20.7419 14.1522L21.4703 14.3309ZM18.4208 8.41763L18.1835 7.70615C17.9594 7.7809 17.7836 7.95687 17.7091 8.18107L18.4208 8.41763ZM21.783 7.29635L21.5488 6.58386L21.5457 6.58487L21.783 7.29635ZM22 6.99655H21.25H22ZM21.783 6.69675L21.5456 7.4082L21.5488 7.40924L21.783 6.69675ZM19.0223 5.77566L18.7839 6.48676L18.7849 6.48711L19.0223 5.77566ZM18.2236 4.97685L17.5122 5.21436L17.5125 5.21516L18.2236 4.97685ZM17.3017 2.21555L18.0131 1.97804L18.0131 1.97787L17.3017 2.21555ZM16.7032 2.21555L15.9919 1.97787L15.9917 1.97827L16.7032 2.21555ZM15.7823 4.97685L15.0708 4.73957L15.0708 4.73971L15.7823 4.97685ZM14.9827 5.77566L14.7463 5.06387L14.7455 5.06416L14.9827 5.77566ZM12.217 6.69773L12.4512 7.41023L12.4542 7.40923L12.217 6.69773ZM12.217 7.29733L12.4542 6.58583L12.4512 6.58485L12.217 7.29733ZM14.9827 8.21941L14.7455 8.93091L14.7468 8.93134L14.9827 8.21941ZM15.7813 9.01822L15.0694 9.25403L15.0698 9.25534L15.7813 9.01822ZM16.7032 11.7845L15.9917 12.0216L15.9919 12.0221L16.7032 11.7845ZM17.3017 11.7845L18.0131 12.0221L18.0134 12.021L17.3017 11.7845ZM11.994 21.0009V20.2509H3V21.0009V21.7509H11.994V21.0009ZM3 21.0009H3.75V12.0062H3H2.25V21.0009H3ZM3 12.0062H3.75C3.75 8.08098 6.49222 4.7905 10.1663 3.9551L10 3.22376L9.83371 2.49243C5.49133 3.4798 2.25 7.36588 2.25 12.0062H3ZM20.7419 14.1522L20.0134 13.9736C19.1297 17.5767 15.8716 20.2509 11.994 20.2509V21.0009V21.7509C16.5773 21.7509 20.4255 18.5904 21.4703 14.3309L20.7419 14.1522ZM18.4208 8.41763L18.6581 9.12911L22.0203 8.00783L21.783 7.29635L21.5457 6.58487L18.1835 7.70615L18.4208 8.41763ZM21.783 7.29635L22.0172 8.00883C22.2304 7.93874 22.416 7.80312 22.5476 7.62135L21.9401 7.1816L21.3325 6.74185C21.3861 6.66776 21.4618 6.61245 21.5488 6.58386L21.783 7.29635ZM21.9401 7.1816L22.5476 7.62135C22.6792 7.43959 22.75 7.22094 22.75 6.99655H22H21.25C21.25 6.90508 21.2789 6.81595 21.3325 6.74185L21.9401 7.1816ZM22 6.99655H22.75C22.75 6.77217 22.6792 6.55351 22.5476 6.37174L21.9401 6.81149L21.3325 7.25124C21.2789 7.17714 21.25 7.08801 21.25 6.99655H22ZM21.9401 6.81149L22.5476 6.37174C22.416 6.18995 22.2304 6.05435 22.0172 5.98426L21.783 6.69675L21.5488 7.40924C21.4618 7.38066 21.3862 7.32536 21.3325 7.25124L21.9401 6.81149ZM21.783 6.69675L22.0204 5.9853L19.2596 5.06421L19.0223 5.77566L18.7849 6.48711L21.5456 7.4082L21.783 6.69675ZM19.0223 5.77566L19.2607 5.06456C19.1848 5.03914 19.116 4.99648 19.0594 4.93991L18.529 5.47019L17.9986 6.00047C18.2192 6.22112 18.488 6.38758 18.7839 6.48676L19.0223 5.77566ZM18.529 5.47019L19.0594 4.93991C19.0028 4.88334 18.9602 4.81441 18.9347 4.73854L18.2236 4.97685L17.5125 5.21516C17.6116 5.51101 17.778 5.77983 17.9986 6.00047L18.529 5.47019ZM18.2236 4.97685L18.935 4.73934L18.0131 1.97804L17.3017 2.21555L16.5903 2.45306L17.5122 5.21436L18.2236 4.97685ZM17.3017 2.21555L18.0131 1.97787C17.9422 1.76591 17.8066 1.58157 17.6252 1.45094L17.1868 2.0595L16.7485 2.66806C16.6745 2.61479 16.6192 2.53963 16.5904 2.45323L17.3017 2.21555ZM17.1868 2.0595L17.6252 1.45094C17.4439 1.32031 17.226 1.25 17.0025 1.25V2V2.75C16.9113 2.75 16.8224 2.72132 16.7485 2.66806L17.1868 2.0595ZM17.0025 2V1.25C16.779 1.25 16.5611 1.32029 16.3797 1.45094L16.8181 2.0595L17.2564 2.66806C17.1825 2.72133 17.0936 2.75 17.0025 2.75V2ZM16.8181 2.0595L16.3797 1.45094C16.1984 1.58157 16.0627 1.76591 15.9919 1.97787L16.7032 2.21555L17.4146 2.45323C17.3857 2.53963 17.3304 2.61479 17.2564 2.66806L16.8181 2.0595ZM16.7032 2.21555L15.9917 1.97827L15.0708 4.73957L15.7823 4.97685L16.4938 5.21413L17.4147 2.45283L16.7032 2.21555ZM15.7823 4.97685L15.0708 4.73971C15.0456 4.81527 15.0032 4.8839 14.9468 4.94018L15.4769 5.47078L16.0069 6.00139C16.2282 5.78033 16.3949 5.51074 16.4938 5.214L15.7823 4.97685ZM15.4769 5.47078L14.9468 4.94018C14.8905 4.99645 14.8218 5.0388 14.7463 5.06387L14.9827 5.77566L15.219 6.48744C15.5159 6.38887 15.7857 6.22243 16.0069 6.00139L15.4769 5.47078ZM14.9827 5.77566L14.7455 5.06416L11.9798 5.98624L12.217 6.69773L12.4542 7.40923L15.2199 6.48716L14.9827 5.77566ZM12.217 6.69773L11.9828 5.98525C11.7696 6.05534 11.584 6.19097 11.4524 6.37273L12.0599 6.81248L12.6675 7.25223C12.6139 7.32632 12.5382 7.38163 12.4512 7.41022L12.217 6.69773ZM12.0599 6.81248L11.4524 6.37273C11.3208 6.55447 11.25 6.77312 11.25 6.99753H12H12.75C12.75 7.08902 12.7211 7.17815 12.6675 7.25223L12.0599 6.81248ZM12 6.99753H11.25C11.25 7.22193 11.3208 7.44059 11.4524 7.62234L12.0599 7.18259L12.6675 6.74284C12.7211 6.81693 12.75 6.90605 12.75 6.99753H12ZM12.0599 7.18259L11.4524 7.62234C11.584 7.80413 11.7696 7.93973 11.9828 8.00982L12.217 7.29733L12.4512 6.58485C12.5382 6.61343 12.6139 6.66873 12.6675 6.74284L12.0599 7.18259ZM12.217 7.29733L11.9798 8.00883L14.7455 8.93091L14.9827 8.21941L15.2199 7.50791L12.4542 6.58583L12.217 7.29733ZM14.9827 8.21941L14.7468 8.93134C14.8219 8.95625 14.8903 8.99838 14.9463 9.05441L15.4767 8.52414L16.007 7.99386C15.7857 7.7725 15.5157 7.60593 15.2186 7.50747L14.9827 8.21941ZM15.4767 8.52414L14.9463 9.05441C15.0023 9.11044 15.0444 9.1788 15.0694 9.25403L15.7813 9.01822L16.4933 8.7824C16.3949 8.48525 16.2284 8.21522 16.007 7.99386L15.4767 8.52414ZM15.7813 9.01822L15.0698 9.25534L15.9917 12.0216L16.7032 11.7845L17.4147 11.5473L16.4929 8.78109L15.7813 9.01822ZM16.7032 11.7845L15.9919 12.0221C16.0627 12.2341 16.1984 12.4184 16.3797 12.5491L16.8181 11.9405L17.2564 11.3319C17.3304 11.3852 17.3857 11.4604 17.4146 11.5468L16.7032 11.7845ZM16.8181 11.9405L16.3797 12.5491C16.5611 12.6797 16.779 12.75 17.0025 12.75V12V11.25C17.0936 11.25 17.1825 11.2787 17.2564 11.3319L16.8181 11.9405ZM17.0025 12V12.75C17.226 12.75 17.4438 12.6797 17.6252 12.5491L17.1868 11.9405L16.7485 11.3319C16.8224 11.2787 16.9113 11.25 17.0025 11.25V12ZM17.1868 11.9405L17.6252 12.5491C17.8066 12.4184 17.9422 12.2341 18.0131 12.0221L17.3017 11.7845L16.5904 11.5468C16.6192 11.4604 16.6745 11.3852 16.7485 11.3319L17.1868 11.9405ZM17.3017 11.7845L18.0134 12.021L19.1325 8.6542L18.4208 8.41763L17.7091 8.18107L16.59 11.5479L17.3017 11.7845Z" fill="#1E727F"/>
</svg>
