<svg width="24" height="24" viewBox="0 0 24 24" fill="none" xmlns="http://www.w3.org/2000/svg">
<path d="M10.4003 19.8006C10.5019 20.1468 10.7129 20.4507 11.0017 20.6669C11.2905 20.8831 11.6415 21 12.0023 21C12.3631 21 12.7142 20.8831 13.003 20.6669C13.2918 20.4507 13.5028 20.1468 13.6044 19.8006M12.0003 4.80007V3M12.0003 4.80007C13.5917 4.80007 15.1179 5.43223 16.2431 6.55749C17.3684 7.68275 18.0005 9.20893 18.0005 10.8003C18.0005 16.4373 19.2006 17.4005 19.2006 17.4005H4.80005C4.80005 17.4005 6.00009 15.8677 6.00009 10.8003C6.00009 9.20893 6.63226 7.68275 7.75752 6.55749C8.88278 5.43223 10.409 4.80007 12.0003 4.80007Z" stroke="black" stroke-width="1.5" stroke-linecap="round" stroke-linejoin="round"/>
</svg>
