<svg preserveAspectRatio="none" width="100%" height="100%" overflow="visible" style="display: block;" viewBox="0 0 24 24" fill="none" xmlns="http://www.w3.org/2000/svg">
<g id="Road-Sign-Hairpin-Turn-Left Streamline Ultimate">
<path id="Vector" d="M1.26556 10.9028L10.9021 1.26561C10.9021 1.26561 11.4996 0.66802 12.0972 1.26556L21.7344 10.9021C21.7344 10.9021 22.332 11.4996 21.7345 12.0972L12.0979 21.7344C12.0979 21.7344 11.5004 22.332 10.9028 21.7345L1.26561 12.0979C1.26561 12.0979 0.66802 11.5004 1.26556 10.9028Z" stroke="var(--stroke-0, black)" stroke-width="1.5" stroke-linecap="round" stroke-linejoin="round"/>
<path id="Vector_2" d="M15 15V9.75C15 8.75544 14.6312 7.80161 13.9749 7.09835C13.3185 6.39509 12.4283 6 11.5 6C10.5717 6 9.68149 6.39509 9.02513 7.09835C8.36875 7.80161 8 8.75544 8 9.75V12.75" stroke="var(--stroke-0, black)" stroke-width="1.5" stroke-linecap="round" stroke-linejoin="round"/>
<path id="Vector_3" d="M10 11L8 13L6 11" stroke="var(--stroke-0, black)" stroke-width="1.5" stroke-linecap="round" stroke-linejoin="round"/>
</g>
</svg>
