<svg width="24" height="24" viewBox="0 0 24 24" fill="none" xmlns="http://www.w3.org/2000/svg">
<path d="M12.6 15.025V18.826C12.6 19.9576 11.6215 20.875 10.4144 20.875H5.1864C3.9792 20.875 3.00044 19.9578 3 18.826V7.17475C3.00044 6.04288 3.97907 5.12541 5.1864 5.125H6.24M3 17.5H12.6M18.6 3H12C10.6745 3 9.6 4.00736 9.6 5.25V8.625C9.6 9.86764 10.6745 10.875 12 10.875H15V13.6875L18 10.875H18.6C19.9255 10.875 21 9.86764 21 8.625V5.25C21 4.00736 19.9255 3 18.6 3Z" stroke="#286271" stroke-width="1.5" stroke-linecap="round" stroke-linejoin="round"/>
</svg>
