<svg width="24" height="24" viewBox="0 0 24 24" fill="none" xmlns="http://www.w3.org/2000/svg">
<path d="M12.5821 3.3566L15.259 8.65995L20.4111 9.17036C20.5338 9.18055 20.6509 9.22568 20.7488 9.30039C20.8466 9.3751 20.9209 9.47628 20.963 9.59193C21.0051 9.70759 21.0131 9.83288 20.9862 9.95298C20.9593 10.0731 20.8986 10.183 20.8111 10.2696L16.571 14.4721L18.1431 20.1827C18.1752 20.3038 18.1717 20.4316 18.133 20.5508C18.0942 20.67 18.0218 20.7754 17.9245 20.8544C17.8273 20.9334 17.7092 20.9827 17.5846 20.9962C17.4601 21.0097 17.3342 20.987 17.2222 20.9307L11.9989 18.3442L6.78277 20.9275C6.6708 20.9838 6.54496 21.0065 6.42037 20.993C6.29578 20.9795 6.17775 20.9302 6.08048 20.8512C5.9832 20.7722 5.91083 20.6668 5.87206 20.5476C5.83329 20.4284 5.82978 20.3006 5.86194 20.1795L7.43399 14.4689L3.19067 10.2664C3.10326 10.1798 3.0425 10.0699 3.01558 9.94978C2.98867 9.82968 2.99674 9.70439 3.03883 9.58873C3.08091 9.47308 3.15526 9.3719 3.25306 9.29719C3.35087 9.22248 3.46803 9.17735 3.59068 9.16716L8.74282 8.65675L11.4157 3.3566C11.4707 3.24924 11.5542 3.15914 11.6571 3.09622C11.76 3.03329 11.8783 3 11.9989 3C12.1195 3 12.2378 3.03329 12.3407 3.09622C12.4436 3.15914 12.5272 3.24924 12.5821 3.3566Z" stroke="#FFD100" stroke-width="1.5" stroke-linecap="round" stroke-linejoin="round"/>
</svg>
