<svg preserveAspectRatio="none" width="100%" height="100%" overflow="visible" style="display: block;" viewBox="0 0 24 24" fill="none" xmlns="http://www.w3.org/2000/svg">
<g id="Carnival-Shop Streamline Ultimate" clip-path="url(#clip0_0_18)">
<path id="Vector" d="M0.754028 6.86902V23.244H23.254V6.86902" stroke="var(--stroke-0, #286271)" stroke-width="1.5" stroke-linecap="round" stroke-linejoin="round"/>
<path id="Vector_2" d="M4.06702 10.023V16.085H19.942V10.002" stroke="var(--stroke-0, #286271)" stroke-width="1.5" stroke-linecap="round" stroke-linejoin="round"/>
<path id="Vector_3" d="M8.24597 6.86105L9.56397 0.774048" stroke="var(--stroke-0, #286271)" stroke-width="1.5" stroke-linecap="round" stroke-linejoin="round"/>
<path id="Vector_4" d="M3.49197 0.755981H20.516C20.7204 0.755942 20.9202 0.817181 21.0896 0.931794C21.2589 1.04641 21.39 1.20914 21.466 1.39898L23.254 6.86898C23.254 11.081 15.746 11.069 15.746 6.86098C15.746 11.073 8.24597 11.071 8.24597 6.86098C8.24597 11.073 0.745972 11.071 0.745972 6.86098L2.54197 1.39998C2.61777 1.20995 2.7488 1.04701 2.91815 0.932208C3.0875 0.817408 3.28738 0.756022 3.49197 0.755981Z" stroke="var(--stroke-0, #286271)" stroke-width="1.5" stroke-linecap="round" stroke-linejoin="round"/>
<path id="Vector_5" d="M15.746 6.86105L14.444 0.774048" stroke="var(--stroke-0, #286271)" stroke-width="1.5" stroke-linecap="round" stroke-linejoin="round"/>
<path id="Vector_6" d="M5.58099 16.479V23.054" stroke="var(--stroke-0, #286271)" stroke-width="1.5" stroke-linecap="round" stroke-linejoin="round"/>
<path id="Vector_7" d="M18.427 16.479V23.054" stroke="var(--stroke-0, #286271)" stroke-width="1.5" stroke-linecap="round" stroke-linejoin="round"/>
<path id="Vector_8" d="M12.004 16.479V23.054" stroke="var(--stroke-0, #286271)" stroke-width="1.5" stroke-linecap="round" stroke-linejoin="round"/>
<path id="Vector_9" d="M0.992981 6.11096H23.006" stroke="var(--stroke-0, #286271)" stroke-width="1.5" stroke-linecap="round" stroke-linejoin="round"/>
</g>
<defs>
<clipPath id="clip0_0_18">
<rect width="24" height="24" fill="white"/>
</clipPath>
</defs>
</svg>
