<svg width="24" height="24" viewBox="0 0 24 24" fill="none" xmlns="http://www.w3.org/2000/svg">
<g clip-path="url(#clip0_40000432_11424)">
<path d="M0.75 23.25H23.25" stroke="url(#paint0_linear_40000432_11424)" stroke-width="1.5" stroke-linecap="round" stroke-linejoin="round"/>
<path d="M6 16.25H3C2.80189 16.2526 2.61263 16.3324 2.47253 16.4725C2.33244 16.6126 2.25259 16.8019 2.25 17V23.25H6.75V17C6.74741 16.8019 6.66756 16.6126 6.52747 16.4725C6.38737 16.3324 6.19811 16.2526 6 16.25Z" stroke="url(#paint1_linear_40000432_11424)" stroke-width="1.5" stroke-linecap="round" stroke-linejoin="round"/>
<path d="M13.5 12.25H10.5C10.3019 12.2526 10.1126 12.3324 9.97253 12.4725C9.83244 12.6126 9.75259 12.8019 9.75 13V23.25H14.25V13C14.2474 12.8019 14.1676 12.6126 14.0275 12.4725C13.8874 12.3324 13.6981 12.2526 13.5 12.25Z" stroke="url(#paint2_linear_40000432_11424)" stroke-width="1.5" stroke-linecap="round" stroke-linejoin="round"/>
<path d="M21 8.25H18C17.8019 8.25259 17.6126 8.33244 17.4725 8.47253C17.3324 8.61263 17.2526 8.80189 17.25 9V23.25H21.75V9C21.7474 8.80189 21.6676 8.61263 21.5275 8.47253C21.3874 8.33244 21.1981 8.25259 21 8.25Z" stroke="url(#paint3_linear_40000432_11424)" stroke-width="1.5" stroke-linecap="round" stroke-linejoin="round"/>
<path d="M4.18005 9.23994L20.2501 1.93994" stroke="url(#paint4_linear_40000432_11424)" stroke-width="1.5" stroke-linecap="round" stroke-linejoin="round"/>
<path d="M19.0599 5.13L20.2499 1.94L17.0699 0.75" stroke="url(#paint5_linear_40000432_11424)" stroke-width="1.5" stroke-linecap="round" stroke-linejoin="round"/>
</g>
<defs>
<linearGradient id="paint0_linear_40000432_11424" x1="12.0328" y1="24.2506" x2="11.9759" y2="22.8288" gradientUnits="userSpaceOnUse">
<stop stop-color="#10364F"/>
<stop offset="1" stop-color="#16494B"/>
</linearGradient>
<linearGradient id="paint1_linear_40000432_11424" x1="4.50656" y1="23.2543" x2="-0.207149" y2="19.8898" gradientUnits="userSpaceOnUse">
<stop stop-color="#10364F"/>
<stop offset="1" stop-color="#16494B"/>
</linearGradient>
<linearGradient id="paint2_linear_40000432_11424" x1="12.0066" y1="23.2567" x2="6.1083" y2="20.5777" gradientUnits="userSpaceOnUse">
<stop stop-color="#10364F"/>
<stop offset="1" stop-color="#16494B"/>
</linearGradient>
<linearGradient id="paint3_linear_40000432_11424" x1="19.5066" y1="23.2592" x2="13.102" y2="21.1259" gradientUnits="userSpaceOnUse">
<stop stop-color="#10364F"/>
<stop offset="1" stop-color="#16494B"/>
</linearGradient>
<linearGradient id="paint4_linear_40000432_11424" x1="12.2385" y1="9.2444" x2="8.5951" y2="0.339309" gradientUnits="userSpaceOnUse">
<stop stop-color="#10364F"/>
<stop offset="1" stop-color="#16494B"/>
</linearGradient>
<linearGradient id="paint5_linear_40000432_11424" x1="18.6646" y1="5.13267" x2="15.6169" y2="2.67596" gradientUnits="userSpaceOnUse">
<stop stop-color="#10364F"/>
<stop offset="1" stop-color="#16494B"/>
</linearGradient>
<clipPath id="clip0_40000432_11424">
<rect width="24" height="24" fill="white"/>
</clipPath>
</defs>
</svg>
