<svg preserveAspectRatio="none" width="100%" height="100%" overflow="visible" style="display: block;" viewBox="0 0 20 20" fill="none" xmlns="http://www.w3.org/2000/svg">
<g id="frame">
<path id="vector" d="M10.6 13.025V16.826C10.6 17.9576 9.62147 18.875 8.4144 18.875H3.1864C1.9792 18.875 1.00044 17.9578 1 16.826V5.17475C1.00044 4.04288 1.97907 3.12541 3.1864 3.125H4.24M1 15.5H10.6M16.6 1H10C8.67452 1 7.6 2.00736 7.6 3.25V6.625C7.6 7.86764 8.67452 8.875 10 8.875H13V11.6875L16 8.875H16.6C17.9255 8.875 19 7.86764 19 6.625V3.25C19 2.00736 17.9255 1 16.6 1Z" stroke="var(--stroke-0, #286271)" stroke-width="1.5" stroke-linecap="round" stroke-linejoin="round"/>
</g>
</svg>
