<svg preserveAspectRatio="none" width="100%" height="100%" overflow="visible" style="display: block;" viewBox="0 0 20 20" fill="none" xmlns="http://www.w3.org/2000/svg">
<g id="frame">
<path id="vector" d="M1 15.75H4C4.13807 15.75 4.25 15.8619 4.25 16V19C4.25 19.1381 4.13807 19.25 4 19.25H1C0.861929 19.25 0.75 19.1381 0.75 19V16C0.75 15.8619 0.861929 15.75 1 15.75ZM8.5 15.75H11.5C11.6381 15.75 11.75 15.8619 11.75 16V19C11.75 19.1381 11.6381 19.25 11.5 19.25H8.5C8.36193 19.25 8.25 19.1381 8.25 19V16C8.25 15.8619 8.36193 15.75 8.5 15.75ZM16 15.75H19C19.1381 15.75 19.25 15.8619 19.25 16V19C19.25 19.1381 19.1381 19.25 19 19.25H16C15.8619 19.25 15.75 19.1381 15.75 19V16C15.75 15.8619 15.8619 15.75 16 15.75ZM1 8.25H4C4.13807 8.25 4.25 8.36193 4.25 8.5V11.5C4.25 11.6381 4.13807 11.75 4 11.75H1C0.861929 11.75 0.75 11.6381 0.75 11.5V8.5C0.75 8.36193 0.861929 8.25 1 8.25ZM8.5 8.25H11.5C11.6381 8.25 11.75 8.36193 11.75 8.5V11.5C11.75 11.6381 11.6381 11.75 11.5 11.75H8.5C8.36193 11.75 8.25 11.6381 8.25 11.5V8.5C8.25 8.36193 8.36193 8.25 8.5 8.25ZM16 8.25H19C19.1381 8.25 19.25 8.36193 19.25 8.5V11.5C19.25 11.6381 19.1381 11.75 19 11.75H16C15.8619 11.75 15.75 11.6381 15.75 11.5V8.5C15.75 8.36193 15.8619 8.25 16 8.25ZM1 0.75H4C4.13807 0.75 4.25 0.861929 4.25 1V4C4.25 4.13807 4.13807 4.25 4 4.25H1C0.861929 4.25 0.75 4.13807 0.75 4V1C0.75 0.861929 0.861929 0.75 1 0.75ZM8.5 0.75H11.5C11.6381 0.75 11.75 0.861929 11.75 1V4C11.75 4.13807 11.6381 4.25 11.5 4.25H8.5C8.36193 4.25 8.25 4.13807 8.25 4V1C8.25 0.861929 8.36193 0.75 8.5 0.75ZM16 0.75H19C19.1381 0.75 19.25 0.861929 19.25 1V4C19.25 4.13807 19.1381 4.25 19 4.25H16C15.8619 4.25 15.75 4.13807 15.75 4V1C15.75 0.861929 15.8619 0.75 16 0.75Z" stroke="var(--stroke-0, #286271)" stroke-width="1.5"/>
</g>
</svg>
