<svg preserveAspectRatio="none" width="100%" height="100%" overflow="visible" style="display: block;" viewBox="0 0 20 20" fill="none" xmlns="http://www.w3.org/2000/svg">
<g id="frame">
<path id="vector" d="M5.6875 12.375H3.92969C3.15269 12.375 2.40751 12.0663 1.85809 11.5169C1.30866 10.9675 1 10.2223 1 9.44531C1 8.66831 1.30866 7.92313 1.85809 7.37371C2.40751 6.82429 3.15269 6.51563 3.92969 6.51562H5.6875M5.6875 12.375V6.51562M5.6875 12.375C9.1259 12.3753 12.4873 13.393 15.3484 15.3L16.2344 15.8906V3L15.3484 3.59063C12.4873 5.49761 9.1259 6.51533 5.6875 6.51562M5.6875 12.375C5.687 13.1421 5.84258 13.9014 6.14477 14.6065C6.44696 15.3116 6.88945 15.9479 7.44531 16.4766M18.5781 8.27344V10.6172" stroke="var(--stroke-0, white)" stroke-width="1.5" stroke-linecap="round" stroke-linejoin="round"/>
</g>
</svg>
